<svg fill="#1C2033" width="52" height="52" viewBox="0 0 64 64" xmlns="http://www.w3.org/2000/svg"><path d="M55.6288 22.2893C55.2691 22.564 48.9197 26.0867 48.9197 33.9197C48.9197 42.9799 56.9991 46.1851 57.2409 46.2645C57.2037 46.4599 55.9574 50.6542 52.9811 54.9278C50.3272 58.6886 47.5556 62.4434 43.3391 62.4434C39.1227 62.4434 38.0376 60.0317 33.1701 60.0317C28.4266 60.0317 26.7401 62.5227 22.8833 62.5227C19.0265 62.5227 16.3354 59.0427 13.2413 54.7691C9.65741 49.7506 6.76172 41.9542 6.76172 34.5547C6.76172 22.6862 14.5993 16.3916 22.3128 16.3916C26.4114 16.3916 29.828 19.0413 32.4012 19.0413C34.8505 19.0413 38.6701 16.2329 43.3329 16.2329C45.1001 16.2329 51.4495 16.3916 55.6288 22.2893ZM41.1193 11.2083C43.0477 8.95546 44.4118 5.82959 44.4118 2.70371C44.4118 2.27024 44.3746 1.83067 44.294 1.47656C41.1565 1.59256 37.4237 3.53402 35.1729 6.10432C33.4057 8.08242 31.7564 11.2083 31.7564 14.3769C31.7564 14.8532 31.837 15.3293 31.8742 15.4819C32.0726 15.5186 32.395 15.5613 32.7175 15.5613C35.5326 15.5613 39.0731 13.7053 41.1193 11.2083Z"/></svg>