<?xml version="1.0" standalone="no"?>
<!DOCTYPE svg PUBLIC "-//W3C//DTD SVG 20010904//EN"
 "http://www.w3.org/TR/2001/REC-SVG-20010904/DTD/svg10.dtd">
<svg version="1.0" xmlns="http://www.w3.org/2000/svg"
 width="512.000000pt" height="512.000000pt" viewBox="0 0 512.000000 512.000000"
 preserveAspectRatio="xMidYMid meet">

<g transform="translate(0.000000,512.000000) scale(0.100000,-0.100000)"
fill="#000000" stroke="none">
<path d="M4040 4965 l0 -155 176 -2 176 -3 -338 -320 c-185 -176 -341 -321
-345 -323 -4 -2 -43 26 -86 63 -188 161 -380 255 -624 306 -146 30 -372 31
-516 0 -370 -78 -678 -289 -873 -598 l-45 -70 -130 -6 c-300 -14 -558 -116
-801 -317 -323 -268 -507 -721 -464 -1144 51 -499 355 -916 812 -1112 93 -40
230 -79 313 -89 l55 -7 0 -209 0 -209 -235 0 -235 0 0 -160 0 -160 235 0 235
0 0 -225 0 -225 155 0 155 0 0 225 0 225 245 0 245 0 0 160 0 160 -245 0 -245
0 2 207 3 207 85 16 c375 73 691 287 889 603 l43 67 67 0 c497 0 969 296 1195
748 188 376 186 823 -5 1204 -22 43 -39 79 -39 81 0 2 165 161 368 353 l367
349 5 -190 5 -190 155 0 155 0 3 448 2 447 -460 0 -460 0 0 -155z m-1055 -750
c345 -94 608 -330 724 -652 49 -133 64 -238 58 -393 -4 -105 -11 -155 -31
-225 -32 -107 -89 -231 -147 -317 -63 -93 -202 -225 -303 -287 -132 -82 -335
-151 -443 -151 -33 0 -35 1 -28 27 23 92 29 156 30 303 0 179 -19 295 -72 444
-132 369 -416 663 -780 806 l-94 37 27 34 c160 198 366 328 604 380 107 24
359 20 455 -6z m-1549 -680 c-21 -56 -38 -251 -33 -380 13 -309 117 -573 321
-817 134 -161 381 -330 574 -393 l52 -17 -48 -61 c-173 -218 -457 -359 -752
-374 -490 -24 -910 292 -1047 787 -14 52 -18 102 -17 245 0 166 2 187 28 270
58 193 146 336 291 473 52 49 129 109 176 137 121 72 305 131 448 144 8 1 11
-5 7 -14z m456 -61 c80 -30 217 -114 294 -181 132 -112 266 -328 314 -503 29
-111 42 -253 30 -361 -12 -120 -30 -200 -47 -206 -8 -3 -42 5 -76 17 -354 128
-606 419 -678 785 -20 101 -18 302 5 400 10 44 20 83 22 87 5 8 45 -3 136 -38z"/>
</g>
</svg>
